Gamer (2009) TS XviD-MAX

Format                           : AVI
Format/Info                      : Audio Video Interleave
Format profile                   : OpenDML
File size                        : 1.28 GiB
Duration                         : 3h 33mn
Overall bit rate                 : 859 Kbps
Writing application              : Lavf52.13.0
Writing library                  : VirtualDubMod build 2542/release
Original source form             : MAX TORRENTZ
Copyright                        : SIGISMUNT

Video
Format                           : xvid
Codec ID                         : xvid
Duration                         : 3h 33mn
Bit rate                         : 802 Kbps
Width                            : 640 pixels
Height                           : 480 pixels
Display aspect ratio             : 4:3
Frame rate                       : 25.000 fps
Resolution                       : 24 bits
Bits/(Pixel*Frame)               : 0.104
Stream size                      : 1.20 GiB (93%)

Audio
ID                               : 1
Format                           : MPEG Audio
Format version                   : Version 1
Format profile                   : Layer 3
Codec ID                         : 55
Codec ID/Hint                    : MP3
Duration                         : 1h 24mn
Bit rate mode                    : Constant
Bit rate                         : 128 Kbps
Channel(s)                       : 2 channels
Sampling rate                    : 44.1 KHz
Resolution                       : 16 bits
Stream size                      : 77.3 MiB (6%)
Alignment                        : Aligned on interleaves
Interleave, duration             : 26 ms (0.65 video frame)
Writing library                  : LAME

Screens: 
http://www.postimg.com/image/7000/6393.jpg 
http://www.postimg.com/image/7000/6394.jpg 
http://www.postimg.com/image/7000/6395.jpg 
http://www.postimg.com/image/7000/6396.jpg

ScreenCaps: 
http://www.postimg.com/image/7000/6397.jpg


